<?xml version="1.0" standalone="no"?><!DOCTYPE svg PUBLIC "-//W3C//DTD SVG 1.1//EN" "http://www.w3.org/Graphics/SVG/1.1/DTD/svg11.dtd"><svg t="1510116759135" class="icon" style="" viewBox="0 0 1024 1024" version="1.1" xmlns="http://www.w3.org/2000/svg" p-id="1018" xmlns:xlink="http://www.w3.org/1999/xlink" width="200" height="200"><defs><style type="text/css"></style></defs><path d="M870.4 0c84.48 0 153.6 69.12 153.6 153.6v716.8c0 84.48-69.12 153.6-153.6 153.6h-716.8c-84.48 0-153.6-69.12-153.6-153.6v-716.8c0-84.48 69.12-153.6 153.6-153.6h716.8z" fill="#4285F4" p-id="1019"></path><path d="M844.8 506.88c0-128-38.4-202.24-92.16-250.88-66.56-58.88-145.92-74.24-240.64-74.24s-171.52 15.36-240.64 74.24c-56.32 48.64-92.16 122.88-92.16 250.88s38.4 202.24 92.16 250.88c66.56 58.88 145.92 74.24 240.64 74.24s171.52-15.36 240.64-74.24c53.76-48.64 92.16-122.88 92.16-250.88m-102.4 107.52c-7.68 33.28-17.92 56.32-30.72 74.24-2.56 2.56-10.24 12.8-15.36 17.92l-15.36 15.36c-15.36 12.8-38.4 25.6-69.12 30.72-40.96 10.24-79.36 12.8-99.84 10.24-20.48 0-58.88-2.56-99.84-10.24-30.72-7.68-53.76-20.48-69.12-30.72-2.56-2.56-12.8-10.24-15.36-15.36-5.12-5.12-12.8-12.8-15.36-17.92-10.24-15.36-23.04-40.96-30.72-74.24-10.24-43.52-10.24-84.48-10.24-107.52 0-23.04 0-64 10.24-107.52 7.68-33.28 17.92-56.32 30.72-74.24 2.56-2.56 10.24-12.8 15.36-17.92l15.36-15.36c15.36-12.8 38.4-25.6 69.12-30.72 40.96-10.24 79.36-12.8 99.84-10.24 20.48 0 58.88 2.56 99.84 10.24 30.72 7.68 53.76 20.48 69.12 30.72 2.56 2.56 12.8 10.24 15.36 15.36 5.12 5.12 12.8 12.8 15.36 17.92 10.24 15.36 23.04 40.96 30.72 74.24 10.24 43.52 10.24 84.48 10.24 107.52 2.56 23.04 0 64-10.24 107.52" fill="#FFFFFF" p-id="1020"></path><path d="M599.04 506.88c-15.36 0-40.96-10.24-74.24-28.16-40.96-20.48-71.68-33.28-94.72-33.28-46.08-2.56-92.16 25.6-133.12 84.48l46.08 30.72c25.6-30.72 48.64-48.64 71.68-46.08 12.8 0 30.72 5.12 51.2 17.92l46.08 23.04c25.6 12.8 51.2 20.48 71.68 20.48h5.12c48.64 0 94.72-28.16 133.12-84.48l-46.08-30.72c-25.6 30.72-51.2 46.08-76.8 46.08" fill="#FFFFFF" p-id="1021"></path></svg>